<?xml version="1.0" encoding="utf-8"?>
<!-- Generator: Adobe Illustrator 16.0.0, SVG Export Plug-In . SVG Version: 6.00 Build 0)  -->
<!DOCTYPE svg PUBLIC "-//W3C//DTD SVG 1.1//EN" "http://www.w3.org/Graphics/SVG/1.1/DTD/svg11.dtd">
<svg version="1.1" id="Capa_1" xmlns="http://www.w3.org/2000/svg" xmlns:xlink="http://www.w3.org/1999/xlink" x="0px" y="0px"
	 width="1841.908px" height="22.779px" viewBox="0 0 1841.908 22.779" enable-background="new 0 0 1841.908 22.779"
	 xml:space="preserve">
<g>
	<path fill="#C5D006" d="M33.749,11.389c0,0,27.725-0.288,76.244-0.792c24.26-0.203,53.718-0.449,87.508-0.731
		c33.79-0.227,71.912-0.484,113.5-0.763c41.588-0.213,86.642-0.444,134.294-0.689c47.653-0.171,97.904-0.352,149.889-0.538
		c51.985-0.112,105.702-0.228,160.286-0.345c54.584-0.046,110.034-0.093,165.485-0.139c55.45,0.045,110.9,0.091,165.484,0.135
		c54.584,0.116,108.302,0.229,160.286,0.34c51.984,0.186,102.236,0.366,149.89,0.537c47.652,0.245,92.705,0.476,134.293,0.689
		c41.588,0.281,79.71,0.538,113.5,0.766c33.79,0.284,63.248,0.531,87.508,0.735c48.519,0.506,76.244,0.796,76.244,0.796
		s-27.726,0.29-76.244,0.796c-24.26,0.204-53.718,0.451-87.508,0.734c-33.79,0.229-71.912,0.485-113.5,0.767
		c-41.588,0.213-86.641,0.444-134.293,0.689c-47.653,0.17-97.905,0.35-149.89,0.536c-51.984,0.11-105.702,0.224-160.286,0.34
		c-54.584,0.045-110.034,0.09-165.484,0.136c-55.451-0.047-110.901-0.094-165.485-0.14c-54.584-0.117-108.301-0.233-160.286-0.345
		c-51.985-0.188-102.236-0.367-149.889-0.539C397.642,14.12,352.588,13.889,311,13.676c-41.587-0.279-79.709-0.536-113.5-0.764
		c-33.79-0.282-63.248-0.528-87.508-0.731C61.474,11.677,33.749,11.389,33.749,11.389z"/>
</g>
</svg>
