<?xml version="1.0" encoding="utf-8"?>
<!-- Generator: Adobe Illustrator 16.0.0, SVG Export Plug-In . SVG Version: 6.00 Build 0)  -->
<!DOCTYPE svg PUBLIC "-//W3C//DTD SVG 1.1//EN" "http://www.w3.org/Graphics/SVG/1.1/DTD/svg11.dtd">
<svg version="1.1" id="Capa_1" xmlns="http://www.w3.org/2000/svg" xmlns:xlink="http://www.w3.org/1999/xlink" x="0px" y="0px"
	 width="45px" height="49.477px" viewBox="0 0 45 49.477" enable-background="new 0 0 45 49.477" xml:space="preserve">
<path fill="#C4CF00" d="M22.5,1.158c-9.968,0-18.048,8.08-18.048,18.048s8.08,18.048,18.048,18.048
	c9.967,0,18.048-8.08,18.048-18.048S32.467,1.158,22.5,1.158z M13.301,6.232h7.683c0.104,0,0.184,0.068,0.282,0.243l3.362,7.379
	c-0.657-0.263-1.374-0.411-2.128-0.411c-2.884,0-5.269,2.125-5.69,4.894l-3.734-10.89c-0.05-0.104-0.109-0.242-0.125-0.346
	l-0.053-0.348C12.91,6.405,13.058,6.232,13.301,6.232z M14.458,31.974c-0.044,0.138-0.139,0.207-0.277,0.207h-2.227
	c-0.242,0-0.374-0.173-0.458-0.486c-0.019-0.105,0.001-0.209-0.015-0.313c-0.004-0.243,0.077-0.385,0.092-0.521l5.329-10.3
	c0.289,1.2,0.951,2.25,1.856,3.027L14.458,31.974z M22.499,16.292c1.61,0,2.914,1.306,2.914,2.915c0,1.611-1.304,2.914-2.914,2.914
	c-1.609,0-2.912-1.303-2.912-2.914C19.587,17.598,20.89,16.292,22.499,16.292z M31.7,32.181h-7.682
	c-0.105,0-0.186-0.068-0.282-0.242l-3.363-7.38c0.658,0.265,1.373,0.41,2.124,0.41c2.887,0,5.273-2.124,5.692-4.893l3.734,10.888
	c0.054,0.104,0.109,0.243,0.126,0.347l0.056,0.35C32.089,32.008,31.942,32.181,31.7,32.181z M33.428,7.554l-5.331,10.299
	c-0.29-1.2-0.951-2.25-1.854-3.026l4.299-8.387c0.048-0.139,0.14-0.208,0.282-0.208h2.224c0.244,0,0.373,0.172,0.456,0.487
	c0.017,0.103-0.001,0.207,0.017,0.311C33.521,7.274,33.44,7.414,33.428,7.554z"/>
</svg>
