<?xml version="1.0" encoding="utf-8"?>
<!-- Generator: Adobe Illustrator 16.0.0, SVG Export Plug-In . SVG Version: 6.00 Build 0)  -->
<!DOCTYPE svg PUBLIC "-//W3C//DTD SVG 1.1//EN" "http://www.w3.org/Graphics/SVG/1.1/DTD/svg11.dtd">
<svg version="1.1" id="Capa_1" xmlns="http://www.w3.org/2000/svg" xmlns:xlink="http://www.w3.org/1999/xlink" x="0px" y="0px"
	 width="612px" height="792px" viewBox="0 0 612 792" enable-background="new 0 0 612 792" xml:space="preserve">
<g>
	<g>
		<polygon fill="#95BE28" points="260.729,267.702 186.718,322.553 182.585,330.442 255.845,275.591 		"/>
		<g>
			<path fill="#95BE28" d="M231.05,454.044l-27.425-43.956l-12.022-21.038l30.807-49.591l16.531-26.674l16.906-27.05l-73.635,55.227
				l-16.53,26.298l13.9,21.79l1.503,2.254l-1.503,2.254l-12.022,19.912l26.298,43.956c15.779,25.547,32.685,40.95,64.619,40.95
				h0.376L231.05,454.044z"/>
			<path fill="#49962C" d="M163.05,371.392l-28.177-44.332c-15.779-25.547-32.685-40.95-64.619-40.95h-0.375l66.497,105.193
				L64.619,506.266l74.387-55.227l25.923-42.078l11.271-18.033L163.05,371.392z"/>
			<polygon fill="#49962C" points="60.11,524.299 134.122,469.447 138.254,461.558 64.995,516.409 			"/>
		</g>
		<path fill="#95BE28" d="M390.343,401.072c12.773-0.752,18.784-4.885,25.923-12.022c7.138-7.138,10.519-17.282,10.519-29.68
			c0-16.906-4.884-29.68-14.651-38.32c-9.769-8.641-24.42-13.149-43.58-13.149h-50.719V457.05h28.553V319.171h11.646
			c13.524,0,23.293,3.005,30.056,9.392c6.762,6.387,9.768,16.155,9.768,28.928c0,11.646-3.381,20.663-10.144,26.298
			s-18.033,9.017-34.563,10.144l74.011,96.553h31.934L390.343,401.072z"/>
		<g>
			<path fill="#95BE28" d="M485.017,308.652c-25.171,0-46.21,3.381-57.48,27.801c2.254,6.762,3.757,14.276,3.757,22.542
				c0,13.525-3.757,24.42-11.646,32.685c-0.376,0.375-1.127,1.127-1.503,1.502c0,1.127,0,2.254,0,3.381
				c0,14.276,0.752,25.923,2.63,36.066l36.442,47.337c8.265,1.879,18.033,2.63,28.552,2.63c41.702,0,66.873-9.768,66.873-85.657
				C551.89,316.542,524.84,308.652,485.017,308.652z M485.017,457.05c-31.558,0-40.574-8.266-40.574-60.11
				c0-60.111,13.148-62.741,40.574-62.741c27.801,0,40.199,3.006,40.199,62.741C524.84,447.657,515.447,457.05,485.017,457.05z"/>
			<path fill="#95BE28" d="M317.834,461.183h-4.133v-3.757l-49.966-1.127c-6.763,0-14.276,0.375-14.276-12.022v-34.188l51.845-2.254
				v-22.166l-51.845-2.254v-34.188c0-6.387,0-13.149,12.022-13.149h52.221v-23.668c-22.165-1.127-57.104-2.63-57.104-2.63
				c-3.757,0-7.514,0.376-10.895,1.127l-22.917,36.817l0.375,83.027l32.31,51.846c1.127,0,2.63,0,3.757,0
				c0,0,96.928-1.127,105.193-2.254l-13.9-19.16h-3.382H317.834z"/>
		</g>
	</g>
	<g>
		<path fill="#49962C" d="M126.232,499.503c-1.127-1.127-3.005-1.879-4.884-1.879c-4.133,0-6.387,3.006-6.387,6.763
			c0,3.006,1.878,6.387,6.387,6.387c1.503,0,2.63-0.376,4.132-1.503v-3.381h-4.884v-3.006h7.89v7.89
			c-1.878,2.254-4.133,3.381-7.514,3.381c-7.138,0-9.768-4.508-9.768-9.392c0-5.26,3.381-10.144,9.768-10.144
			c2.63,0,4.884,1.127,6.763,3.005L126.232,499.503z"/>
		<path fill="#49962C" d="M228.044,513.779h-4.133l-5.26-6.387h-3.381v6.387h-3.381v-18.785c3.005,0,6.011,0,9.017,0
			c4.508,0,6.762,3.006,6.762,6.012c0,2.63-1.127,5.26-4.884,6.011L228.044,513.779L228.044,513.779z M214.895,498.376v6.011h5.26
			c2.254,0,3.381-1.503,3.381-3.006c0-1.502-1.127-3.005-3.381-3.005H214.895z"/>
		<path fill="#49962C" d="M327.603,504.387c0,4.884-3.006,9.768-9.393,9.768s-9.768-4.884-9.768-9.768s3.005-9.768,9.768-9.768
			C324.597,494.619,327.603,499.503,327.603,504.387z M311.823,504.763c0,3.005,1.878,6.387,6.011,6.387
			c4.509,0,6.012-3.382,6.012-6.387c0-3.006-1.879-6.763-6.012-6.763S311.823,501.381,311.823,504.763z"/>
		<path fill="#49962C" d="M426.409,494.994v10.52c0,5.636-3.382,8.266-7.89,8.266c-4.509,0-8.266-2.63-8.266-8.266v-10.52h3.382
			v10.52c0,3.381,1.878,5.26,4.884,5.26s4.508-1.879,4.508-5.26v-10.52H426.409L426.409,494.994z"/>
		<path fill="#49962C" d="M518.453,508.144h-5.26v5.636h-3.381v-18.785c3.005,0,6.011,0,8.641,0
			C527.846,494.994,527.846,508.144,518.453,508.144z M513.193,505.138h5.26c4.508,0,4.508-6.762,0-6.762h-5.26V505.138z"/>
	</g>
</g>
</svg>
