<?xml version="1.0" encoding="utf-8"?>
<!-- Generator: Adobe Illustrator 16.0.0, SVG Export Plug-In . SVG Version: 6.00 Build 0)  -->
<!DOCTYPE svg PUBLIC "-//W3C//DTD SVG 1.1//EN" "http://www.w3.org/Graphics/SVG/1.1/DTD/svg11.dtd">
<svg version="1.1" id="Capa_1" xmlns="http://www.w3.org/2000/svg" xmlns:xlink="http://www.w3.org/1999/xlink" x="0px" y="0px"
	 width="133.668px" height="69.517px" viewBox="129.765 86.799 133.668 69.517"
	 enable-background="new 129.765 86.799 133.668 69.517" xml:space="preserve">
<g>
	<g>
		<polygon fill="#95BE28" points="199.69,100.283 183.529,112.26 182.626,113.983 198.624,102.006 		"/>
		<g>
			<path fill="#95BE28" d="M193.209,140.973l-5.989-9.599l-2.625-4.594l6.727-10.829l3.61-5.825l3.691-5.907l-16.079,12.06
				l-3.609,5.743l3.035,4.758l0.328,0.492l-0.328,0.492l-2.625,4.348l5.743,9.598c3.445,5.579,7.137,8.942,14.11,8.942h0.082
				L193.209,140.973z"/>
			<path fill="#49962C" d="M178.361,122.925l-6.153-9.681c-3.445-5.578-7.137-8.942-14.111-8.942h-0.082l14.521,22.97
				l-15.668,25.104l16.243-12.06l5.661-9.188l2.46-3.938L178.361,122.925z"/>
			<polygon fill="#49962C" points="155.882,156.315 172.043,144.337 172.946,142.614 156.949,154.592 			"/>
		</g>
		<path fill="#95BE28" d="M227.993,129.406c2.789-0.164,4.102-1.067,5.661-2.625c1.559-1.559,2.297-3.774,2.297-6.481
			c0-3.691-1.066-6.48-3.199-8.368c-2.133-1.887-5.332-2.871-9.516-2.871H212.16v32.569h6.235v-30.108h2.543
			c2.953,0,5.086,0.656,6.562,2.051c1.477,1.394,2.133,3.527,2.133,6.316c0,2.543-0.739,4.512-2.215,5.743
			c-1.477,1.23-3.938,1.969-7.547,2.215l16.161,21.084h6.973L227.993,129.406z"/>
		<g>
			<path fill="#95BE28" d="M248.667,109.225c-5.497,0-10.091,0.738-12.552,6.071c0.492,1.476,0.82,3.117,0.82,4.922
				c0,2.954-0.82,5.333-2.543,7.137c-0.082,0.082-0.246,0.246-0.328,0.328c0,0.246,0,0.492,0,0.738c0,3.118,0.164,5.661,0.575,7.875
				l7.957,10.337c1.805,0.41,3.938,0.574,6.235,0.574c9.106,0,14.603-2.133,14.603-18.704
				C263.269,110.948,257.362,109.225,248.667,109.225z M248.667,141.63c-6.891,0-8.86-1.806-8.86-13.126
				c0-13.126,2.871-13.7,8.86-13.7c6.07,0,8.778,0.656,8.778,13.7C257.362,139.579,255.311,141.63,248.667,141.63z"/>
			<path fill="#95BE28" d="M212.16,142.532h-0.902v-0.821l-10.911-0.245c-1.477,0-3.118,0.082-3.118-2.625v-7.466l11.321-0.491
				v-4.841l-11.321-0.492v-7.465c0-1.395,0-2.872,2.625-2.872h11.403v-5.168c-4.84-0.246-12.469-0.574-12.469-0.574
				c-0.821,0-1.641,0.082-2.379,0.246l-5.004,8.039l0.082,18.13l7.055,11.321c0.247,0,0.575,0,0.82,0c0,0,21.166-0.246,22.971-0.491
				l-3.036-4.185h-0.738H212.16L212.16,142.532z"/>
		</g>
	</g>
	<g>
		<path fill="#49962C" d="M170.321,150.899c-0.246-0.246-0.656-0.41-1.066-0.41c-0.903,0-1.395,0.657-1.395,1.478
			c0,0.656,0.41,1.395,1.395,1.395c0.328,0,0.574-0.082,0.902-0.328v-0.739h-1.067v-0.656h1.723v1.724
			c-0.41,0.492-0.902,0.737-1.64,0.737c-1.559,0-2.134-0.984-2.134-2.051c0-1.148,0.739-2.215,2.134-2.215
			c0.574,0,1.066,0.246,1.476,0.656L170.321,150.899z"/>
		<path fill="#49962C" d="M192.553,154.017h-0.902l-1.148-1.396h-0.738v1.396h-0.738v-4.102c0.656,0,1.312,0,1.969,0
			c0.984,0,1.476,0.656,1.476,1.312c0,0.574-0.246,1.148-1.066,1.312L192.553,154.017L192.553,154.017z M189.682,150.653v1.313
			h1.148c0.492,0,0.738-0.329,0.738-0.657c0-0.327-0.246-0.656-0.738-0.656H189.682L189.682,150.653z"/>
		<path fill="#49962C" d="M214.293,151.967c0,1.066-0.656,2.132-2.051,2.132s-2.133-1.066-2.133-2.132
			c0-1.067,0.656-2.134,2.133-2.134C213.637,149.833,214.293,150.899,214.293,151.967z M210.848,152.048
			c0,0.656,0.41,1.396,1.312,1.396c0.985,0,1.313-0.739,1.313-1.396s-0.411-1.476-1.313-1.476S210.848,151.309,210.848,152.048z"/>
		<path fill="#49962C" d="M235.869,149.916v2.297c0,1.23-0.739,1.805-1.723,1.805c-0.985,0-1.805-0.574-1.805-1.805v-2.297h0.738
			v2.297c0,0.738,0.41,1.148,1.067,1.148c0.656,0,0.984-0.41,0.984-1.148v-2.297H235.869L235.869,149.916z"/>
		<path fill="#49962C" d="M255.967,152.787h-1.148v1.23h-0.738v-4.102c0.656,0,1.312,0,1.887,0
			C258.018,149.916,258.018,152.787,255.967,152.787z M254.819,152.131h1.148c0.984,0,0.984-1.478,0-1.478h-1.148V152.131z"/>
	</g>
</g>
</svg>
