<?xml version="1.0" encoding="utf-8"?>
<!-- Generator: Adobe Illustrator 16.0.0, SVG Export Plug-In . SVG Version: 6.00 Build 0)  -->
<!DOCTYPE svg PUBLIC "-//W3C//DTD SVG 1.1//EN" "http://www.w3.org/Graphics/SVG/1.1/DTD/svg11.dtd">
<svg version="1.1" id="Capa_1" xmlns="http://www.w3.org/2000/svg" xmlns:xlink="http://www.w3.org/1999/xlink" x="0px" y="0px"
	 width="561.9px" height="178.48px" viewBox="0 0 561.9 178.48" enable-background="new 0 0 561.9 178.48" xml:space="preserve">
<path fill="#00ABCC" d="M543.416,121.458H406.722c-6.889,0-12.473,5.585-12.473,12.474v7.14H373.39v-3.855h-2.349v3.855h-21.146
	v-3.855h-2.35v3.855H326.4v-3.855h-2.351v3.855h-21.144v-3.855h-2.351v3.855h-21.145v-13.073h-2.35v13.073H261.42v-3.855h-2.349
	v3.855h-21.147v-3.855h-2.347v3.855H214.43v-3.855h-2.348v3.855h-21.146v-3.855h-2.35v3.855h-20.937v-7.14
	c0-6.889-5.586-12.474-12.475-12.474H18.482c-6.889,0-12.473,5.585-12.473,12.474v13.496c0,6.891,5.584,12.475,12.473,12.475
	h136.695c6.889,0,12.475-5.584,12.475-12.475v-4.008h20.937v3.734h2.35v-3.734h21.146v3.734h2.348v-3.734h21.147v3.734h2.347v-3.734
	h21.147v3.734h2.349v-3.734h15.641v14.459h2.35V143.42h21.144v3.734h2.352v-3.734h21.144v3.734h2.351v-3.734h21.145v3.734h2.351
	v-3.734h21.146v3.734h2.349v-3.734h20.859v4.008c0,6.891,5.584,12.475,12.473,12.475h136.693c6.891,0,12.475-5.584,12.475-12.475
	v-13.496C555.89,127.043,550.306,121.458,543.416,121.458z M47.57,153.159h-2.921v-9.672c0-0.67-0.125-1.194-0.373-1.573
	c-0.249-0.378-0.59-0.665-1.022-0.859h-4.057v12.104h-2.921v-25.961h7.172c0.541,0,1.043,0.104,1.509,0.309
	c0.465,0.206,0.876,0.487,1.233,0.845c0.357,0.356,0.638,0.77,0.844,1.232c0.206,0.465,0.309,0.968,0.309,1.509v4.674
	c0,0.844-0.233,1.611-0.698,2.304c-0.466,0.693-1.066,1.201-1.801,1.524c0.8,0.304,1.455,0.802,1.963,1.493
	c0.508,0.692,0.763,1.493,0.763,2.4V153.159z M60.486,130.118h-6.425v7.271h5.549v2.92h-5.549v9.93h6.425v2.922H51.14v-25.962h9.346
	V130.118z M72.688,153.159l-1.168-6.297h-6.004l-1.136,6.297h-2.92l4.186-25.054c0.043-0.261,0.2-0.508,0.471-0.747
	c0.27-0.237,0.579-0.356,0.925-0.356h2.888c0.346,0,0.654,0.113,0.925,0.341s0.427,0.48,0.471,0.764l4.284,25.054L72.688,153.159
	L72.688,153.159z M86.901,153.159h-9.313v-25.962h2.888v23.041h6.425V153.159z M92.255,153.159h-2.92v-25.962h2.92V153.159z
	 M108.254,148.486c0,0.648-0.119,1.255-0.357,1.816c-0.238,0.562-0.568,1.056-0.99,1.478c-0.422,0.423-0.92,0.759-1.493,1.007
	c-0.574,0.249-1.185,0.373-1.834,0.373h-6.62v-25.962h6.62c0.649,0,1.26,0.113,1.834,0.342c0.573,0.228,1.071,0.534,1.493,0.925
	c0.422,0.39,0.751,0.859,0.99,1.412c0.238,0.553,0.357,1.151,0.357,1.801V148.486z M121.591,153.159l-1.168-6.297h-6.004
	l-1.136,6.297h-2.92l4.186-25.054c0.043-0.261,0.2-0.508,0.471-0.747c0.27-0.237,0.579-0.356,0.925-0.356h2.888
	c0.346,0,0.654,0.113,0.925,0.341s0.427,0.48,0.471,0.764l4.284,25.054L121.591,153.159L121.591,153.159z M138.401,148.486
	c0,0.648-0.119,1.255-0.357,1.816c-0.238,0.563-0.568,1.056-0.99,1.478c-0.422,0.423-0.92,0.759-1.493,1.007
	c-0.574,0.249-1.185,0.373-1.834,0.373h-6.62v-25.962h6.62c0.649,0,1.26,0.113,1.834,0.342c0.573,0.228,1.071,0.534,1.493,0.925
	c0.422,0.39,0.751,0.859,0.99,1.412c0.238,0.553,0.357,1.151,0.357,1.801V148.486z M413.121,130.41
	c-0.324-0.325-0.746-0.487-1.268-0.487h-1.945c-0.521,0-0.941,0.162-1.268,0.487c-0.323,0.323-0.484,0.745-0.484,1.266v17.135
	c0,0.521,0.161,0.94,0.484,1.267c0.324,0.324,0.746,0.486,1.268,0.486h1.945c0.434,0,0.764-0.043,0.99-0.13
	c0.229-0.086,0.39-0.205,0.486-0.356s0.156-0.336,0.179-0.553c0.021-0.216,0.032-0.454,0.032-0.714v-5.127h0.064h2.92v5.127
	c0,0.648-0.118,1.255-0.356,1.816c-0.237,0.563-0.567,1.056-0.989,1.478s-0.92,0.757-1.492,1.006s-1.186,0.374-1.834,0.374h-1.945
	c-0.648,0-1.255-0.125-1.817-0.374c-0.562-0.249-1.055-0.584-1.477-1.006s-0.758-0.914-1.006-1.478
	c-0.25-0.562-0.375-1.168-0.375-1.816v-17.135c0-0.648,0.125-1.26,0.375-1.834c0.247-0.572,0.584-1.07,1.006-1.492
	c0.422-0.423,0.912-0.751,1.477-0.99c0.563-0.237,1.169-0.356,1.817-0.356h1.945c0.648,0,1.262,0.119,1.834,0.356
	c0.572,0.238,1.07,0.567,1.492,0.99c0.422,0.422,0.752,0.92,0.989,1.492c0.238,0.574,0.356,1.186,0.356,1.834v4.09h-2.92v-4.09
	C413.606,131.156,413.445,130.735,413.121,130.41z M431.715,153.159L431.715,153.159h-2.921v-9.672c0-0.67-0.125-1.194-0.373-1.573
	c-0.249-0.378-0.59-0.665-1.021-0.859h-4.059v12.104h-2.921v-25.961h7.172c0.541,0,1.044,0.104,1.509,0.309
	c0.468,0.206,0.878,0.487,1.233,0.845c0.357,0.356,0.638,0.77,0.844,1.232c0.205,0.465,0.311,0.968,0.311,1.509v4.674
	c0,0.844-0.233,1.611-0.698,2.304c-0.465,0.693-1.065,1.201-1.801,1.524c0.8,0.304,1.455,0.802,1.964,1.493
	c0.508,0.692,0.762,1.493,0.762,2.4L431.715,153.159L431.715,153.159z M444.631,130.118h-6.426v7.271h5.549v2.92h-5.549v9.93h6.426
	v2.922h-9.347v-25.962h9.347V130.118L444.631,130.118z M456.832,153.159l-1.168-6.297h-6.004l-1.136,6.297h-2.921l4.187-25.054
	c0.043-0.261,0.2-0.508,0.471-0.747c0.271-0.237,0.578-0.356,0.925-0.356h2.891c0.346,0,0.653,0.113,0.925,0.341
	c0.271,0.228,0.427,0.48,0.47,0.764l4.284,25.054L456.832,153.159L456.832,153.159z M470.786,130.118h-4.543v23.041h-2.921v-23.041
	h-4.543v-2.921h12.007V130.118z M476.141,153.159h-2.921v-25.962h2.921V153.159z M488.895,152.38
	c-0.043,0.261-0.199,0.51-0.471,0.747c-0.271,0.237-0.579,0.356-0.926,0.356h-2.888c-0.349,0-0.654-0.113-0.926-0.341
	c-0.271-0.228-0.429-0.48-0.472-0.764l-4.314-25.184h2.984l3.797,22.943c0,0.064,0.021,0.13,0.064,0.194
	c0.043,0.043,0.081,0.092,0.113,0.146c0.031,0.055,0.08,0.081,0.146,0.081h0.098c0.13,0,0.211-0.055,0.243-0.162
	s0.062-0.194,0.081-0.26l3.731-22.943h2.921L488.895,152.38z M498.759,153.159h-2.921v-25.962h2.921V153.159z M514.757,148.486
	c0,0.648-0.119,1.255-0.354,1.816c-0.238,0.563-0.568,1.056-0.99,1.478c-0.422,0.423-0.92,0.759-1.492,1.007
	c-0.573,0.249-1.185,0.373-1.834,0.373h-6.62v-25.962h6.62c0.649,0,1.261,0.113,1.834,0.342c0.572,0.228,1.07,0.534,1.492,0.925
	c0.422,0.39,0.752,0.859,0.99,1.412c0.235,0.553,0.354,1.151,0.354,1.801V148.486z M528.095,153.159l-1.168-6.297h-6.004
	l-1.136,6.297h-2.921l4.187-25.054c0.043-0.261,0.2-0.508,0.471-0.747c0.271-0.237,0.578-0.356,0.927-0.356h2.889
	c0.346,0,0.653,0.113,0.925,0.341s0.428,0.48,0.471,0.764l4.283,25.054L528.095,153.159L528.095,153.159z M544.904,148.486
	c0,0.648-0.119,1.255-0.356,1.816c-0.237,0.562-0.567,1.056-0.99,1.478c-0.422,0.423-0.92,0.759-1.49,1.007
	c-0.573,0.249-1.187,0.373-1.834,0.373h-6.62v-25.962h6.62c0.647,0,1.261,0.113,1.834,0.342c0.57,0.228,1.068,0.534,1.49,0.925
	c0.423,0.39,0.753,0.859,0.99,1.412s0.356,1.151,0.356,1.801V148.486z"/>
<g>
	<path fill="#00ABCC" d="M256.129,68.219l23.236,51.479l23.102-51.215c-5.896,5.918-14.049,9.587-23.044,9.587
		C270.298,78.07,262.044,74.29,256.129,68.219z"/>
	<path fill="#00ABCC" d="M279.694,75.334c15.764,0,28.545-12.779,28.545-28.544c0.001-15.766-12.781-28.544-28.545-28.544
		c-15.766,0-28.545,12.778-28.545,28.544S263.928,75.334,279.694,75.334z"/>
</g>
<path fill="#00ABCC" d="M510.084,130.118h-3.699v20.119h3.699c0.52,0,0.941-0.161,1.266-0.485c0.325-0.325,0.487-0.747,0.487-1.267
	v-16.811c0-0.498-0.162-0.881-0.487-1.151C511.026,130.254,510.604,130.118,510.084,130.118z"/>
<path fill="#00ABCC" d="M427.463,130.086h-4.121v8.048h4.089c0.435-0.193,0.727-0.476,0.876-0.844
	c0.151-0.368,0.229-0.854,0.229-1.46v-4.738c0-0.303-0.104-0.546-0.311-0.729C428.02,130.177,427.766,130.086,427.463,130.086z"/>
<path fill="#00ABCC" d="M452.938,130.118c-0.087-0.13-0.174-0.194-0.26-0.194h-0.098c-0.13,0-0.211,0.055-0.243,0.162
	c-0.033,0.107-0.061,0.194-0.081,0.261l-2.175,13.597h5.16l-2.239-13.597C453.002,130.259,452.98,130.183,452.938,130.118z"/>
<path fill="#00ABCC" d="M524.201,130.118c-0.086-0.13-0.173-0.194-0.259-0.194h-0.1c-0.13,0-0.211,0.055-0.242,0.162
	c-0.032,0.107-0.062,0.194-0.081,0.261l-2.176,13.597h5.16l-2.239-13.597C524.266,130.259,524.245,130.183,524.201,130.118z"/>
<path fill="#00ABCC" d="M540.23,130.118h-3.698v20.119h3.698c0.521,0,0.94-0.161,1.267-0.485c0.325-0.325,0.487-0.747,0.487-1.267
	v-16.811c0-0.498-0.162-0.881-0.487-1.151C541.172,130.254,540.75,130.118,540.23,130.118z"/>
<path fill="#00ABCC" d="M117.697,130.118c-0.087-0.13-0.173-0.194-0.26-0.194h-0.097c-0.13,0-0.211,0.055-0.244,0.162
	c-0.032,0.107-0.06,0.194-0.081,0.261l-2.174,13.597h5.16l-2.239-13.597C117.762,130.259,117.74,130.183,117.697,130.118z"/>
<path fill="#00ABCC" d="M68.793,130.118c-0.087-0.13-0.173-0.194-0.26-0.194h-0.097c-0.13,0-0.211,0.055-0.244,0.162
	c-0.032,0.107-0.06,0.194-0.081,0.261l-2.174,13.597h5.16l-2.239-13.597C68.858,130.259,68.836,130.183,68.793,130.118z"/>
<path fill="#00ABCC" d="M133.728,130.118h-3.699v20.119h3.699c0.52,0,0.941-0.161,1.266-0.485c0.325-0.325,0.487-0.747,0.487-1.267
	v-16.811c0-0.498-0.162-0.881-0.487-1.151C134.669,130.254,134.248,130.118,133.728,130.118z"/>
<path fill="#00ABCC" d="M103.581,130.118h-3.699v20.119h3.699c0.52,0,0.941-0.161,1.266-0.485c0.325-0.325,0.487-0.747,0.487-1.267
	v-16.811c0-0.498-0.162-0.881-0.487-1.151C104.522,130.254,104.1,130.118,103.581,130.118z"/>
<path fill="#00ABCC" d="M43.319,130.086h-4.121v8.048h4.089c0.433-0.193,0.725-0.476,0.876-0.844s0.228-0.854,0.228-1.46v-4.738
	c0-0.303-0.103-0.546-0.309-0.729C43.876,130.177,43.622,130.086,43.319,130.086z"/>
<g>
	<polygon fill="#FFFFFF" points="296.211,24.175 283.763,33.401 283.067,34.728 295.39,25.502 	"/>
	<g>
		<path fill="#FFFFFF" d="M291.219,55.517l-4.612-7.394l-2.021-3.538l5.181-8.341l2.781-4.487l2.843-4.549l-12.385,9.289
			l-2.781,4.423l2.337,3.666l0.254,0.379l-0.254,0.379l-2.022,3.349l4.424,7.394c2.654,4.297,5.497,6.887,10.868,6.887h0.062
			L291.219,55.517z"/>
		<path fill="#FFFFFF" d="M279.782,41.615l-4.739-7.457c-2.654-4.296-5.498-6.888-10.869-6.888h-0.063l11.185,17.693l-12.069,19.336
			l12.512-9.289l4.36-7.078l1.896-3.033L279.782,41.615z"/>
		<polygon fill="#FFFFFF" points="262.468,67.334 274.916,58.108 275.611,56.781 263.289,66.007 		"/>
	</g>
</g>
</svg>
