<?xml version="1.0" encoding="utf-8"?>
<!-- Generator: Adobe Illustrator 16.0.0, SVG Export Plug-In . SVG Version: 6.00 Build 0)  -->
<!DOCTYPE svg PUBLIC "-//W3C//DTD SVG 1.1//EN" "http://www.w3.org/Graphics/SVG/1.1/DTD/svg11.dtd">
<svg version="1.1" id="Capa_1" xmlns="http://www.w3.org/2000/svg" xmlns:xlink="http://www.w3.org/1999/xlink" x="0px" y="0px"
	 width="561.9px" height="178.48px" viewBox="0 0 561.9 178.48" enable-background="new 0 0 561.9 178.48" xml:space="preserve">
<path fill="#E2007A" d="M543.416,121.458H406.722c-6.889,0-12.473,5.585-12.473,12.473v7.14H373.39v-3.855h-2.349v3.855h-21.146
	v-3.855h-2.35v3.855h-21.145v-3.855h-2.35v3.855h-21.144v-3.855h-2.351v3.855h-21.144v-13.073h-2.35v13.073h-15.641v-3.855h-2.349
	v3.855h-21.147v-3.855h-2.347v3.855h-21.147v-3.855h-2.348v3.855h-21.146v-3.855h-2.35v3.855h-20.937v-7.14
	c0-6.888-5.586-12.473-12.475-12.473H18.482c-6.889,0-12.473,5.585-12.473,12.473v13.497c0,6.89,5.584,12.474,12.473,12.474h136.695
	c6.889,0,12.475-5.584,12.475-12.474v-4.008h20.937v3.734h2.35v-3.734h21.146v3.734h2.348v-3.734h21.147v3.734h2.347v-3.734h21.147
	v3.734h2.349v-3.734h15.641v14.459h2.35V143.42h21.144v3.734h2.351v-3.734h21.144v3.734h2.35v-3.734h21.145v3.734h2.35v-3.734
	h21.146v3.734h2.349v-3.734h20.859v4.008c0,6.89,5.584,12.474,12.473,12.474h136.693c6.891,0,12.475-5.584,12.475-12.474v-13.497
	C555.89,127.043,550.306,121.458,543.416,121.458z M47.57,153.159h-2.921v-9.672c0-0.67-0.125-1.194-0.373-1.573
	c-0.249-0.378-0.59-0.665-1.022-0.86h-4.057v12.104h-2.921v-25.961h7.172c0.541,0,1.043,0.104,1.509,0.309
	c0.465,0.206,0.876,0.487,1.233,0.844c0.357,0.357,0.638,0.77,0.844,1.233c0.206,0.465,0.309,0.968,0.309,1.509v4.673
	c0,0.844-0.233,1.612-0.698,2.304c-0.466,0.693-1.066,1.201-1.801,1.525c0.8,0.303,1.455,0.801,1.963,1.493
	c0.508,0.692,0.763,1.493,0.763,2.4V153.159z M60.486,130.118h-6.425v7.27h5.549v2.92h-5.549v9.93h6.425v2.922H51.14v-25.962h9.346
	V130.118z M72.688,153.159l-1.168-6.297h-6.004l-1.136,6.297h-2.92l4.186-25.054c0.043-0.26,0.2-0.508,0.471-0.747
	c0.27-0.237,0.579-0.356,0.925-0.356h2.888c0.346,0,0.654,0.113,0.925,0.341c0.271,0.227,0.427,0.48,0.471,0.763l4.284,25.054
	H72.688z M86.901,153.159h-9.313v-25.962h2.888v23.041h6.425V153.159z M92.255,153.159h-2.92v-25.962h2.92V153.159z
	 M108.254,148.486c0,0.649-0.119,1.255-0.357,1.817s-0.568,1.055-0.99,1.477c-0.422,0.423-0.92,0.759-1.493,1.007
	c-0.574,0.249-1.185,0.373-1.834,0.373h-6.62v-25.962h6.62c0.649,0,1.26,0.113,1.834,0.342c0.573,0.227,1.071,0.534,1.493,0.925
	c0.422,0.389,0.751,0.859,0.99,1.412c0.238,0.552,0.357,1.151,0.357,1.801V148.486z M121.591,153.159l-1.168-6.297h-6.004
	l-1.136,6.297h-2.92l4.186-25.054c0.043-0.26,0.2-0.508,0.471-0.747c0.27-0.237,0.579-0.356,0.925-0.356h2.888
	c0.346,0,0.654,0.113,0.925,0.341c0.271,0.227,0.427,0.48,0.471,0.763l4.284,25.054H121.591z M138.401,148.486
	c0,0.649-0.119,1.255-0.357,1.817c-0.238,0.563-0.568,1.055-0.99,1.477c-0.422,0.423-0.92,0.759-1.493,1.007
	c-0.574,0.249-1.185,0.373-1.834,0.373h-6.62v-25.962h6.62c0.649,0,1.26,0.113,1.834,0.342c0.573,0.227,1.071,0.534,1.493,0.925
	c0.422,0.389,0.751,0.859,0.99,1.412c0.238,0.552,0.357,1.151,0.357,1.801V148.486z M413.121,130.41
	c-0.324-0.325-0.746-0.487-1.267-0.487h-1.946c-0.521,0-0.941,0.162-1.267,0.487c-0.324,0.323-0.485,0.745-0.485,1.266v17.134
	c0,0.521,0.161,0.941,0.485,1.267c0.324,0.324,0.746,0.486,1.267,0.486h1.946c0.433,0,0.763-0.043,0.99-0.13
	c0.228-0.086,0.389-0.205,0.486-0.356s0.156-0.336,0.179-0.553c0.021-0.216,0.032-0.454,0.032-0.714v-5.127h0.064h2.92v5.127
	c0,0.649-0.118,1.255-0.356,1.817c-0.237,0.563-0.567,1.055-0.989,1.477s-0.92,0.757-1.492,1.006
	c-0.573,0.249-1.186,0.374-1.834,0.374h-1.946c-0.648,0-1.255-0.125-1.817-0.374s-1.055-0.584-1.477-1.006s-0.758-0.914-1.006-1.477
	c-0.25-0.563-0.375-1.168-0.375-1.817v-17.134c0-0.649,0.125-1.26,0.375-1.834c0.248-0.573,0.584-1.071,1.006-1.493
	s0.912-0.751,1.477-0.99c0.563-0.237,1.169-0.356,1.817-0.356h1.946c0.648,0,1.261,0.119,1.834,0.356
	c0.572,0.238,1.07,0.568,1.492,0.99s0.752,0.92,0.989,1.493c0.238,0.574,0.356,1.185,0.356,1.834v4.089h-2.92v-4.089
	C413.606,131.156,413.445,130.735,413.121,130.41z M431.715,153.159L431.715,153.159h-2.921v-9.672c0-0.67-0.125-1.194-0.373-1.573
	c-0.249-0.378-0.59-0.665-1.021-0.86h-4.058v12.104h-2.921v-25.961h7.172c0.541,0,1.044,0.104,1.509,0.309
	c0.467,0.206,0.877,0.487,1.233,0.844c0.357,0.357,0.638,0.77,0.844,1.233c0.205,0.465,0.31,0.968,0.31,1.509v4.673
	c0,0.844-0.233,1.612-0.698,2.304c-0.465,0.693-1.065,1.201-1.801,1.525c0.8,0.303,1.455,0.801,1.964,1.493
	c0.508,0.692,0.762,1.493,0.762,2.4V153.159z M444.631,130.118h-6.426v7.27h5.549v2.92h-5.549v9.93h6.426v2.922h-9.347v-25.962
	h9.347V130.118z M456.832,153.159l-1.168-6.297h-6.004l-1.136,6.297h-2.921l4.187-25.054c0.043-0.26,0.2-0.508,0.471-0.747
	c0.271-0.237,0.578-0.356,0.925-0.356h2.89c0.346,0,0.653,0.113,0.925,0.341c0.27,0.227,0.427,0.48,0.47,0.763l4.284,25.054H456.832
	z M470.786,130.118h-4.543v23.041h-2.921v-23.041h-4.543v-2.921h12.007V130.118z M476.141,153.159h-2.921v-25.962h2.921V153.159z
	 M488.895,152.38c-0.043,0.26-0.2,0.509-0.471,0.747c-0.271,0.237-0.579,0.356-0.926,0.356h-2.888c-0.348,0-0.654-0.113-0.925-0.341
	c-0.271-0.227-0.429-0.48-0.472-0.763l-4.315-25.184h2.985l3.797,22.943c0,0.065,0.021,0.13,0.064,0.195
	c0.043,0.043,0.081,0.092,0.113,0.146c0.032,0.055,0.081,0.081,0.146,0.081h0.098c0.129,0,0.211-0.054,0.243-0.162
	c0.032-0.107,0.061-0.194,0.081-0.26l3.731-22.943h2.921L488.895,152.38z M498.759,153.159h-2.921v-25.962h2.921V153.159z
	 M514.757,148.486c0,0.649-0.119,1.255-0.355,1.817c-0.238,0.563-0.568,1.055-0.99,1.477c-0.422,0.423-0.92,0.759-1.492,1.007
	c-0.573,0.249-1.185,0.373-1.834,0.373h-6.62v-25.962h6.62c0.649,0,1.261,0.113,1.834,0.342c0.572,0.227,1.07,0.534,1.492,0.925
	c0.422,0.389,0.752,0.859,0.99,1.412c0.236,0.552,0.355,1.151,0.355,1.801V148.486z M528.095,153.159l-1.168-6.297h-6.004
	l-1.136,6.297h-2.921l4.187-25.054c0.043-0.26,0.2-0.508,0.471-0.747c0.271-0.237,0.578-0.356,0.926-0.356h2.889
	c0.346,0,0.653,0.113,0.925,0.341c0.271,0.227,0.427,0.48,0.47,0.763l4.284,25.054H528.095z M544.904,148.486
	c0,0.649-0.119,1.255-0.356,1.817s-0.567,1.055-0.99,1.477c-0.422,0.423-0.92,0.759-1.491,1.007
	c-0.573,0.249-1.186,0.373-1.834,0.373h-6.62v-25.962h6.62c0.648,0,1.261,0.113,1.834,0.342c0.571,0.227,1.069,0.534,1.491,0.925
	c0.423,0.389,0.753,0.859,0.99,1.412c0.237,0.552,0.356,1.151,0.356,1.801V148.486z"/>
<g>
	<path fill="#E2007A" d="M256.129,68.22l23.236,51.478l23.102-51.215c-5.896,5.918-14.049,9.587-23.044,9.587
		C270.298,78.07,262.044,74.29,256.129,68.22z"/>
	<path fill="#E2007A" d="M279.694,75.334c15.764,0,28.545-12.78,28.545-28.544c0.001-15.766-12.781-28.544-28.545-28.544
		c-15.766,0-28.545,12.778-28.545,28.544C251.149,62.555,263.928,75.334,279.694,75.334z M294.244,67.312h-12.149
		c-0.166,0-0.293-0.109-0.445-0.382l-5.317-11.673c1.041,0.418,2.172,0.648,3.361,0.648c4.564,0,8.338-3.357,9.001-7.735
		l5.908,17.219c0.082,0.165,0.172,0.384,0.196,0.548l0.086,0.553C294.86,67.036,294.628,67.312,294.244,67.312z M292.409,26.599
		c0.076-0.22,0.223-0.329,0.445-0.329h3.518c0.385,0,0.592,0.273,0.723,0.771c0.025,0.163-0.002,0.328,0.025,0.493
		c0.006,0.386-0.124,0.605-0.145,0.826l-8.432,16.289c-0.459-1.896-1.502-3.558-2.934-4.785L292.409,26.599z M279.692,51.401
		c-2.545,0-4.607-2.063-4.607-4.609c0-2.545,2.062-4.61,4.607-4.61c2.545,0,4.609,2.065,4.609,4.61
		C284.301,49.337,282.237,51.401,279.692,51.401z M265.144,26.27h12.15c0.166,0,0.291,0.108,0.447,0.385l5.316,11.671
		c-1.041-0.416-2.175-0.65-3.366-0.65c-4.563,0-8.334,3.36-9,7.74l-5.906-17.225c-0.078-0.163-0.172-0.382-0.195-0.546l-0.086-0.55
		C264.526,26.543,264.759,26.27,265.144,26.27z M262.415,65.222l8.43-16.29c0.457,1.898,1.502,3.562,2.937,4.788l-6.805,13.262
		c-0.07,0.22-0.221,0.329-0.439,0.329h-3.521c-0.381,0-0.59-0.274-0.725-0.769c-0.027-0.166,0.004-0.33-0.021-0.494
		C262.264,65.663,262.393,65.439,262.415,65.222z"/>
</g>
<path fill="#E2007A" d="M510.084,130.118h-3.699v20.119h3.699c0.52,0,0.941-0.161,1.266-0.485c0.325-0.325,0.487-0.747,0.487-1.267
	v-16.81c0-0.498-0.162-0.881-0.487-1.152C511.026,130.254,510.604,130.118,510.084,130.118z"/>
<path fill="#E2007A" d="M427.463,130.086h-4.121v8.048h4.089c0.434-0.194,0.726-0.476,0.876-0.844
	c0.151-0.368,0.229-0.854,0.229-1.46v-4.738c0-0.303-0.104-0.546-0.31-0.73C428.02,130.178,427.766,130.086,427.463,130.086z"/>
<path fill="#E2007A" d="M452.938,130.118c-0.087-0.13-0.174-0.194-0.26-0.194h-0.098c-0.13,0-0.211,0.054-0.243,0.162
	c-0.033,0.107-0.061,0.194-0.081,0.26l-2.175,13.597h5.16l-2.239-13.597C453.002,130.259,452.98,130.183,452.938,130.118z"/>
<path fill="#E2007A" d="M524.201,130.118c-0.086-0.13-0.173-0.194-0.259-0.194h-0.099c-0.13,0-0.211,0.054-0.242,0.162
	c-0.033,0.107-0.062,0.194-0.082,0.26l-2.175,13.597h5.16l-2.239-13.597C524.266,130.259,524.245,130.183,524.201,130.118z"/>
<path fill="#E2007A" d="M540.23,130.118h-3.698v20.119h3.698c0.521,0,0.941-0.161,1.267-0.485c0.325-0.325,0.487-0.747,0.487-1.267
	v-16.81c0-0.498-0.162-0.881-0.487-1.152C541.172,130.254,540.75,130.118,540.23,130.118z"/>
<path fill="#E2007A" d="M117.697,130.118c-0.087-0.13-0.173-0.194-0.26-0.194h-0.097c-0.13,0-0.211,0.054-0.244,0.162
	c-0.032,0.107-0.06,0.194-0.081,0.26l-2.174,13.597h5.16l-2.239-13.597C117.762,130.259,117.74,130.183,117.697,130.118z"/>
<path fill="#E2007A" d="M68.793,130.118c-0.087-0.13-0.173-0.194-0.26-0.194h-0.097c-0.13,0-0.211,0.054-0.244,0.162
	c-0.032,0.107-0.06,0.194-0.081,0.26l-2.174,13.597h5.16l-2.239-13.597C68.858,130.259,68.836,130.183,68.793,130.118z"/>
<path fill="#E2007A" d="M133.728,130.118h-3.699v20.119h3.699c0.52,0,0.941-0.161,1.266-0.485c0.325-0.325,0.487-0.747,0.487-1.267
	v-16.81c0-0.498-0.162-0.881-0.487-1.152C134.669,130.254,134.248,130.118,133.728,130.118z"/>
<path fill="#E2007A" d="M103.581,130.118h-3.699v20.119h3.699c0.52,0,0.941-0.161,1.266-0.485c0.325-0.325,0.487-0.747,0.487-1.267
	v-16.81c0-0.498-0.162-0.881-0.487-1.152C104.522,130.254,104.1,130.118,103.581,130.118z"/>
<path fill="#E2007A" d="M43.319,130.086h-4.121v8.048h4.089c0.433-0.194,0.725-0.476,0.876-0.844s0.228-0.854,0.228-1.46v-4.738
	c0-0.303-0.103-0.546-0.309-0.73C43.876,130.178,43.622,130.086,43.319,130.086z"/>
</svg>
