<?xml version="1.0" encoding="utf-8"?>
<!-- Generator: Adobe Illustrator 16.0.0, SVG Export Plug-In . SVG Version: 6.00 Build 0)  -->
<!DOCTYPE svg PUBLIC "-//W3C//DTD SVG 1.1//EN" "http://www.w3.org/Graphics/SVG/1.1/DTD/svg11.dtd">
<svg version="1.1" id="Capa_1" xmlns="http://www.w3.org/2000/svg" xmlns:xlink="http://www.w3.org/1999/xlink" x="0px" y="0px"
	 width="517.98px" height="305px" viewBox="0 0 517.98 305" enable-background="new 0 0 517.98 305" xml:space="preserve">
<path fill="#0093BE" d="M430.754,15.204H166.41c-3.919,0-7.107,3.186-7.107,7.118v176.639c0,3.93,3.188,7.107,7.107,7.107h104.195
	c-2.312,26.428-3.573,33.358-4.066,35.168h-0.076c-1.324,1.046-7.631,5.955-8.073,7.104c-0.029,0.059-0.046,0.109-0.037,0.151v1.03
	h-0.011v1.154h0.011c1.066,4.822,33.327,4.596,40.237,4.471c6.885,0.125,39.145,0.354,40.229-4.471v-1.154l0.002-1.104
	c0.02-0.087-0.061-0.209-0.201-0.356c-1.106-1.514-6.687-5.852-7.92-6.824h-0.077c-0.493-1.81-1.754-8.743-4.065-35.168h104.195
	c3.919,0,7.109-3.174,7.109-7.105V22.322C437.862,18.39,434.673,15.204,430.754,15.204z"/>
<g>
	<g>
		<g>
			<rect x="169.66" y="26.705" fill="#FFFFFF" width="257.854" height="163.406"/>
		</g>
	</g>
</g>
<g>
	<path fill="#0093BE" d="M503.026,264.018c0,2.035-1.66,3.662-3.695,3.662h-113.35c-2.024,0-3.683-1.627-3.683-3.662V115.189
		c0-2.035,1.656-3.682,3.683-3.682h113.35c2.035,0,3.695,1.646,3.695,3.682V264.018z"/>
</g>
<g>
	<rect x="394.274" y="125.076" fill="#FFFFFF" width="96.755" height="129.035"/>
</g>
<g>
	<path fill="#FFFFFF" d="M444.062,118.249c0,0.765-0.623,1.39-1.4,1.39c-0.772,0-1.396-0.625-1.396-1.39
		c0-0.773,0.624-1.397,1.396-1.397C443.438,116.851,444.062,117.475,444.062,118.249z"/>
</g>
<g>
	<path fill="#FFFFFF" d="M450.158,260.732c0,1.453-1.174,2.619-2.629,2.619h-9.744c-1.455,0-2.617-1.166-2.617-2.619l0,0
		c0-1.438,1.162-2.614,2.617-2.614h9.744C448.984,258.117,450.158,259.293,450.158,260.732L450.158,260.732z"/>
</g>
<path fill="#0093BE" d="M288.139,265.699v-5.113h-30.528V129.21c0-4.822-3.899-8.745-8.713-8.745H54.18
	c-4.814,0-8.712,3.923-8.712,8.745v131.376H14.954v5.113v2.262v0.324v0.098v0.094c0.059,0.008,0.122,0.012,0.181,0.02
	c5.354,6.638,9.162,5.669,10.242,5.669l126.197-0.022l108.17,0.022h20.049c1.857-0.226,4.702-1.304,8.227-5.675
	c0.039-0.006,0.08-0.008,0.119-0.014v-0.094h0.002v-0.033v-0.389v-2.262H288.139L288.139,265.699z"/>
<g>
	<path fill="#FFFFFF" d="M128.616,260.586c-0.054,0.225-0.086,0.473-0.086,0.723c0,1.896,1.551,3.441,3.446,3.441h39.129
		c1.893,0,3.445-1.549,3.445-3.441c0-0.25-0.034-0.498-0.087-0.723H128.616z"/>
</g>
<g>
	<rect x="55.159" y="130.621" fill="#FFFFFF" width="192.987" height="121.889"/>
</g>
<g>
	<path fill="#FFFFFF" d="M152.821,126.388c0,0.688-0.581,1.259-1.28,1.259c-0.723,0-1.28-0.569-1.28-1.259
		c0-0.721,0.558-1.292,1.28-1.292C152.24,125.096,152.821,125.668,152.821,126.388z"/>
</g>
<g>
	<g>
		<g>
			<path id="SVGID_3_" fill="#0093BE" d="M400.894,280.146c0,5.312-4.315,9.65-9.61,9.65h-43.31c-5.299,0-9.627-4.342-9.627-9.65
				V177.448c0-5.302,4.328-9.638,9.627-9.638h43.31c5.295,0,9.61,4.336,9.61,9.638V280.146z"/>
		</g>
		<g>
			<g>
				<g>
					<defs>
						<path id="SVGID_1_" d="M400.894,280.146c0,5.312-4.315,9.65-9.61,9.65h-43.31c-5.299,0-9.627-4.342-9.627-9.65V177.448
							c0-5.302,4.328-9.638,9.627-9.638h43.31c5.295,0,9.61,4.336,9.61,9.638V280.146z"/>
					</defs>
					<use xlink:href="#SVGID_1_"  overflow="visible" fill="#0093BE"/>
					<clipPath id="SVGID_2_">
						<use xlink:href="#SVGID_1_"  overflow="visible"/>
					</clipPath>
					<g clip-path="url(#SVGID_2_)">
						<rect x="338.347" y="167.811" fill="#0093BE" width="62.562" height="121.978"/>
					</g>
				</g>
			</g>
		</g>
		<g>
			<g>
				<g>
					<defs>
						<path id="SVGID_4_" d="M400.894,280.146c0,5.312-4.315,9.65-9.61,9.65h-43.31c-5.299,0-9.627-4.342-9.627-9.65V177.448
							c0-5.302,4.328-9.638,9.627-9.638h43.31c5.295,0,9.61,4.336,9.61,9.638V280.146z"/>
					</defs>
					<use xlink:href="#SVGID_4_"  overflow="visible" fill="#0093BE"/>
					<clipPath id="SVGID_5_">
						<use xlink:href="#SVGID_4_"  overflow="visible"/>
					</clipPath>
					<g clip-path="url(#SVGID_5_)">
						<path fill="#0093BE" d="M418.08,228.807c0,26.771-21.695,48.48-48.453,48.48c-26.78,0-48.476-21.709-48.476-48.48
							c0-26.776,21.694-48.473,48.476-48.473C396.384,180.334,418.08,202.03,418.08,228.807z"/>
					</g>
				</g>
			</g>
		</g>
		<g>
			<g>
				<g>
					<defs>
						<path id="SVGID_6_" d="M400.894,280.146c0,5.312-4.315,9.65-9.61,9.65h-43.31c-5.299,0-9.627-4.342-9.627-9.65V177.448
							c0-5.302,4.328-9.638,9.627-9.638h43.31c5.295,0,9.61,4.336,9.61,9.638V280.146z"/>
					</defs>
					<use xlink:href="#SVGID_6_"  overflow="visible" fill="#0093BE"/>
					<clipPath id="SVGID_7_">
						<use xlink:href="#SVGID_6_"  overflow="visible"/>
					</clipPath>
					<g clip-path="url(#SVGID_7_)">
						<path fill="#0093BE" d="M415.356,228.807c0,25.267-20.48,45.746-45.729,45.746c-25.261,0-45.73-20.479-45.73-45.746
							c0-25.26,20.472-45.738,45.73-45.738C394.875,183.066,415.356,203.547,415.356,228.807z"/>
					</g>
				</g>
			</g>
		</g>
		<g>
			<g>
				<g>
					<defs>
						<path id="SVGID_8_" d="M400.894,280.146c0,5.312-4.315,9.65-9.61,9.65h-43.31c-5.299,0-9.627-4.342-9.627-9.65V177.448
							c0-5.302,4.328-9.638,9.627-9.638h43.31c5.295,0,9.61,4.336,9.61,9.638V280.146z"/>
					</defs>
					<use xlink:href="#SVGID_8_"  overflow="visible" fill="#0093BE"/>
					<clipPath id="SVGID_9_">
						<use xlink:href="#SVGID_8_"  overflow="visible"/>
					</clipPath>
					<g clip-path="url(#SVGID_9_)">
						<path fill="#0093BE" d="M412.622,228.807c0,23.736-19.252,43.008-42.995,43.008c-23.767,0-42.993-19.271-42.993-43.008
							c0-23.75,19.228-43.002,42.993-43.002C393.37,185.805,412.622,205.057,412.622,228.807z"/>
					</g>
				</g>
			</g>
		</g>
		<g>
			<g>
				<g>
					<defs>
						<path id="SVGID_10_" d="M400.894,280.146c0,5.312-4.315,9.65-9.61,9.65h-43.31c-5.299,0-9.627-4.342-9.627-9.65V177.448
							c0-5.302,4.328-9.638,9.627-9.638h43.31c5.295,0,9.61,4.336,9.61,9.638V280.146z"/>
					</defs>
					<use xlink:href="#SVGID_10_"  overflow="visible" fill="#0093BE"/>
					<clipPath id="SVGID_11_">
						<use xlink:href="#SVGID_10_"  overflow="visible"/>
					</clipPath>
					<g clip-path="url(#SVGID_11_)">
						<path fill="#0093BE" d="M409.024,228.807c0,21.754-17.638,39.412-39.397,39.412c-21.774,0-39.409-17.658-39.409-39.412
							c0-21.77,17.635-39.408,39.409-39.408C391.388,189.398,409.024,207.037,409.024,228.807z"/>
					</g>
				</g>
			</g>
		</g>
	</g>
</g>
<g>
	<g>
		<g>
			<rect x="341.308" y="185.027" fill="#FFFFFF" width="56.605" height="86.703"/>
		</g>
	</g>
</g>
<g>
	<path fill="#FFFFFF" d="M376.851,280.105c0,1.357-1.1,2.465-2.478,2.465h-9.129c-1.356,0-2.468-1.106-2.468-2.465l0,0
		c0-1.354,1.109-2.457,2.468-2.457h9.129C375.751,277.648,376.851,278.75,376.851,280.105L376.851,280.105z"/>
</g>
<g>
	<g>
		<path fill="#FFFFFF" d="M377.108,177.275c0,0.775-0.625,1.392-1.388,1.392h-11.985c-0.775,0-1.398-0.615-1.398-1.392l0,0
			c0-0.754,0.623-1.377,1.398-1.377h11.985C376.485,175.898,377.108,176.521,377.108,177.275L377.108,177.275z"/>
	</g>
	<g>
		<path fill="#FFFFFF" d="M357.104,177.275c0,0.947-0.775,1.711-1.702,1.711c-0.946,0-1.724-0.764-1.724-1.711
			c0-0.936,0.775-1.698,1.724-1.698C356.328,175.576,357.104,176.34,357.104,177.275z"/>
	</g>
</g>
</svg>
