<?xml version="1.0" encoding="utf-8"?>
<!-- Generator: Adobe Illustrator 16.0.0, SVG Export Plug-In . SVG Version: 6.00 Build 0)  -->
<!DOCTYPE svg PUBLIC "-//W3C//DTD SVG 1.1//EN" "http://www.w3.org/Graphics/SVG/1.1/DTD/svg11.dtd">
<svg version="1.1" id="Capa_1" xmlns="http://www.w3.org/2000/svg" xmlns:xlink="http://www.w3.org/1999/xlink" x="0px" y="0px"
	 width="1920px" height="1183px" viewBox="0 0 1920 1183" enable-background="new 0 0 1920 1183" xml:space="preserve">
<g>
	<g opacity="0.15">
		<path fill="#C5D006" d="M856.08,1176.811l-2.191-0.041l36.977-292.955L98.482,971.576l1.483-1.415l527.918-501.966L26.418,305.507
			l646.682,48.417l28.477,44.196l287.342-273.237l-53.64,424.759l110.197,29.82l40.129-125.03l1.063,0.041l387.436,15.443
			l31.746-41.961l46.001-130.615l1.357-0.261l268.366-106.789l-1.072,1.443l-312.243,236.116l28.152,44.579l166.022,6.591
			l-140.973,33.101l158.727,251.571l-386.6-104.597l-144.822,191.734l-0.623,0.09l-181.892,20.132l46.429,72.131l-95.36-66.719
			l-5.05,0.59L856.08,1176.811z M893.137,883.581l-35.603,281.749l92.41-288.062L893.137,883.581z M960.148,876.153l85.28,59.63
			l-41.524-64.433L960.148,876.153z M1005.352,869.628l182.04-20.12l144.243-190.953l-183.007-49.477l-119.38,27.998
			l-57.752,180.042L1005.352,869.628z M958.258,874.862l44.746-4.934l-32.353-50.199l-16.743,52.085L958.258,874.862z
			 M952.758,875.467l2.722-0.252l-2.122-1.509L952.758,875.467z M893.314,882.055l57.13-6.308l1.082-3.315l-52.382-36.641
			L893.314,882.055z M103.18,969.546l787.893-87.248l6.037-47.9L719.08,709.909l-129.924,30.503l0.748-1.36l48.498-87.823
			l81.478,56.949l155.405-36.502L768.729,506.307L629.866,468.74L103.18,969.546z M899.458,833.681l52.674,36.874l17.036-53.099
			l-56.594-87.872L899.458,833.681z M1334.681,657.685l381.22,103.152L1559.27,512.613l-139.855,32.83L1334.681,657.685z
			 M721.564,709.349L897.368,832.27l13.328-105.552l-34.554-53.692L721.564,709.349z M912.995,726.286l57.036,88.504l56.776-177.111
			l-105.787,24.832L912.995,726.286z M878.317,672.496l32.78,50.889l7.626-60.35L878.317,672.496z M1151.961,608.26l180.729,48.905
			l83.842-111.012L1151.961,608.26z M639.146,654.001l-46.388,84.035l124.694-29.283L639.146,654.001z M771.77,507.099
			L877.444,671.2l41.51-9.768l13.962-110.722L771.77,507.099z M935.058,551.333l-13.839,109.569l106.141-24.906l17.608-54.985
			L935.058,551.333z M1047.066,581.588l-17.29,53.859l115.813-27.188L1047.066,581.588z M1047.518,580.022l101.381,27.41
			l269.014-63.169l55.046-72.866l-385.614-15.362L1047.518,580.022z M1475.314,471.485l-54.471,72.111l137.586-32.299l-23.66-37.414
			L1475.314,471.485z M1560.599,510.798l130.695-30.697l-153.896-6.139L1560.599,510.798z M1476.404,469.988l57.427,2.315
			l-26.924-42.674L1476.404,469.988z M770.452,505.08l162.644,43.988l52.924-419.017L702.505,399.638L770.452,505.08z
			 M1554.945,298.267l-47.73,127.85l310.23-233.488L1554.945,298.267z M631.252,467.446l136.138,36.807l-66.429-103.099
			L631.252,467.446z M42.882,308.229l586.333,158.656l70.766-67.267l-28.534-44.302L42.882,308.229z"/>
	</g>
</g>
</svg>
