<?xml version="1.0" encoding="utf-8"?>
<!-- Generator: Adobe Illustrator 16.0.0, SVG Export Plug-In . SVG Version: 6.00 Build 0)  -->
<!DOCTYPE svg PUBLIC "-//W3C//DTD SVG 1.1//EN" "http://www.w3.org/Graphics/SVG/1.1/DTD/svg11.dtd">
<svg version="1.1" id="Capa_1" xmlns="http://www.w3.org/2000/svg" xmlns:xlink="http://www.w3.org/1999/xlink" x="0px" y="0px"
	 width="16.5px" height="19.181px" viewBox="36.763 -23.68 16.5 19.181" enable-background="new 36.763 -23.68 16.5 19.181"
	 xml:space="preserve">
<path fill="#E20079" d="M45.013-22.755c-4.346,0-7.868,3.521-7.868,7.867c0,4.346,3.522,7.869,7.868,7.869s7.867-3.522,7.867-7.869
	C52.88-19.233,49.359-22.755,45.013-22.755z M41.003-20.544h3.348c0.046,0,0.082,0.03,0.125,0.106l1.465,3.217
	c-0.288-0.114-0.6-0.18-0.928-0.18c-1.258,0-2.298,0.928-2.48,2.134l-1.626-4.748c-0.024-0.044-0.049-0.104-0.056-0.15l-0.021-0.151
	C40.833-20.469,40.896-20.544,41.003-20.544z M41.507-9.322c-0.019,0.061-0.061,0.089-0.121,0.089h-0.971
	c-0.105,0-0.164-0.074-0.199-0.211c-0.008-0.045,0-0.091-0.007-0.136c-0.001-0.107,0.032-0.168,0.038-0.229l2.325-4.489
	c0.126,0.523,0.415,0.98,0.809,1.318L41.507-9.322z M45.013-16.158c0.7,0,1.272,0.569,1.272,1.271c0,0.703-0.57,1.271-1.272,1.271
	c-0.701,0-1.269-0.568-1.269-1.271C43.745-15.589,44.312-16.158,45.013-16.158z M49.025-9.232h-3.351
	c-0.044,0-0.081-0.028-0.122-0.105l-1.468-3.217c0.286,0.115,0.6,0.179,0.927,0.179c1.258,0,2.298-0.926,2.481-2.131l1.627,4.746
	c0.023,0.044,0.047,0.104,0.055,0.151L49.2-9.458C49.192-9.306,49.128-9.232,49.025-9.232z M49.776-19.967l-2.323,4.489
	c-0.127-0.523-0.414-0.981-0.809-1.319l1.875-3.657c0.02-0.061,0.061-0.089,0.122-0.089h0.97c0.107,0,0.163,0.074,0.201,0.212
	c0.006,0.044,0,0.09,0.006,0.136C49.816-20.089,49.781-20.028,49.776-19.967z"/>
</svg>
