<?xml version="1.0" encoding="utf-8"?>
<!-- Generator: Adobe Illustrator 21.0.2, SVG Export Plug-In . SVG Version: 6.00 Build 0)  -->
<svg version="1.1" id="Capa_1" xmlns="http://www.w3.org/2000/svg" xmlns:xlink="http://www.w3.org/1999/xlink" x="0px" y="0px"
	 viewBox="0 0 162.9 74.5" style="enable-background:new 0 0 162.9 74.5;" xml:space="preserve">
<style type="text/css">
	.st0{fill:#95BE28;}
	.st1{fill:#49962C;}
</style>
<g>
	<g>
		<polygon class="st0" points="69.4,3.1 49.7,17.7 48.6,19.8 68.1,5.2 		"/>
		<g>
			<path class="st0" d="M61.5,52.7l-7.3-11.7L51,35.4l8.2-13.2l4.4-7.1l4.5-7.2L48.5,22.6l-4.4,7l3.7,5.8l0.4,0.6l-0.4,0.6l-3.2,5.3
				l7,11.7c4.2,6.8,8.7,10.9,17.2,10.9h0.1L61.5,52.7z"/>
			<path class="st1" d="M43.4,30.7l-7.5-11.8c-4.2-6.8-8.7-10.9-17.2-10.9h-0.1L36.3,36L17.2,66.6L37,51.9l6.9-11.2l3-4.8L43.4,30.7
				z"/>
			<polygon class="st1" points="16,71.4 35.7,56.8 36.8,54.7 17.3,69.3 			"/>
		</g>
		<path class="st0" d="M103.9,38.6c3.4-0.2,5-1.3,6.9-3.2c1.9-1.9,2.8-4.6,2.8-7.9c0-4.5-1.3-7.9-3.9-10.2
			c-2.6-2.3-6.5-3.5-11.6-3.5H84.6v39.7h7.6V16.8h3.1c3.6,0,6.2,0.8,8,2.5c1.8,1.7,2.6,4.3,2.6,7.7c0,3.1-0.9,5.5-2.7,7
			c-1.8,1.5-4.8,2.4-9.2,2.7l19.7,25.7h8.5L103.9,38.6z"/>
		<g>
			<path class="st0" d="M129.1,14c-6.7,0-12.3,0.9-15.3,7.4c0.6,1.8,1,3.8,1,6c0,3.6-1,6.5-3.1,8.7c-0.1,0.1-0.3,0.3-0.4,0.4
				c0,0.3,0,0.6,0,0.9c0,3.8,0.2,6.9,0.7,9.6l9.7,12.6c2.2,0.5,4.8,0.7,7.6,0.7c11.1,0,17.8-2.6,17.8-22.8
				C146.9,16.1,139.7,14,129.1,14z M129.1,53.5c-8.4,0-10.8-2.2-10.8-16c0-16,3.5-16.7,10.8-16.7c7.4,0,10.7,0.8,10.7,16.7
				C139.7,51,137.2,53.5,129.1,53.5z"/>
			<path class="st0" d="M84.6,54.6h-1.1v-1l-13.3-0.3c-1.8,0-3.8,0.1-3.8-3.2V41l13.8-0.6v-5.9l-13.8-0.6v-9.1c0-1.7,0-3.5,3.2-3.5
				h13.9V15c-5.9-0.3-15.2-0.7-15.2-0.7c-1,0-2,0.1-2.9,0.3l-6.1,9.8l0.1,22.1l8.6,13.8c0.3,0,0.7,0,1,0c0,0,25.8-0.3,28-0.6
				l-3.7-5.1h-0.9H84.6z"/>
		</g>
	</g>
	<g>
		<path class="st1" d="M33.6,64.8c-0.3-0.3-0.8-0.5-1.3-0.5c-1.1,0-1.7,0.8-1.7,1.8c0,0.8,0.5,1.7,1.7,1.7c0.4,0,0.7-0.1,1.1-0.4
			v-0.9h-1.3v-0.8h2.1v2.1c-0.5,0.6-1.1,0.9-2,0.9c-1.9,0-2.6-1.2-2.6-2.5c0-1.4,0.9-2.7,2.6-2.7c0.7,0,1.3,0.3,1.8,0.8L33.6,64.8z"
			/>
		<path class="st1" d="M60.7,68.6h-1.1l-1.4-1.7h-0.9v1.7h-0.9v-5c0.8,0,1.6,0,2.4,0c1.2,0,1.8,0.8,1.8,1.6c0,0.7-0.3,1.4-1.3,1.6
			L60.7,68.6L60.7,68.6z M57.2,64.5v1.6h1.4c0.6,0,0.9-0.4,0.9-0.8c0-0.4-0.3-0.8-0.9-0.8H57.2z"/>
		<path class="st1" d="M87.2,66.1c0,1.3-0.8,2.6-2.5,2.6c-1.7,0-2.6-1.3-2.6-2.6c0-1.3,0.8-2.6,2.6-2.6
			C86.4,63.5,87.2,64.8,87.2,66.1z M83,66.2c0,0.8,0.5,1.7,1.6,1.7c1.2,0,1.6-0.9,1.6-1.7c0-0.8-0.5-1.8-1.6-1.8
			C83.5,64.4,83,65.3,83,66.2z"/>
		<path class="st1" d="M113.5,63.6v2.8c0,1.5-0.9,2.2-2.1,2.2c-1.2,0-2.2-0.7-2.2-2.2v-2.8h0.9v2.8c0,0.9,0.5,1.4,1.3,1.4
			s1.2-0.5,1.2-1.4v-2.8H113.5z"/>
		<path class="st1" d="M138,67.1h-1.4v1.5h-0.9v-5c0.8,0,1.6,0,2.3,0C140.5,63.6,140.5,67.1,138,67.1z M136.6,66.3h1.4
			c1.2,0,1.2-1.8,0-1.8h-1.4V66.3z"/>
	</g>
</g>
</svg>
